<svg version="1.1" id="Layer_1" xmlns="http://www.w3.org/2000/svg" xmlns:xlink="http://www.w3.org/1999/xlink" x="0px" y="0px"
	 width="100%" viewBox="0 0 640 640" enable-background="new 0 0 640 640" xml:space="preserve">
<path fill="#FEFFFF" opacity="1.000000" stroke="none" 
	d="
M294.000000,641.000000 
	C196.000015,641.000000 98.500038,641.000000 1.000039,641.000000 
	C1.000026,427.666718 1.000026,214.333450 1.000013,1.000125 
	C214.333237,1.000083 427.666473,1.000083 640.999756,1.000042 
	C640.999878,214.333206 640.999878,427.666412 640.999939,640.999817 
	C525.500000,641.000000 410.000000,641.000000 294.000000,641.000000 
M396.828430,342.178375 
	C396.828430,342.178375 396.694519,342.233673 396.879761,342.844238 
	C397.555939,343.647522 398.232117,344.450836 398.925629,345.671722 
	C399.040802,345.967560 399.257050,346.119751 399.761749,346.713257 
	C400.168915,347.151337 400.576111,347.589447 401.002655,348.002258 
	C401.002655,348.002258 400.974548,348.014862 401.142853,348.676422 
	C403.013245,351.199066 405.144409,353.573181 406.687561,356.282227 
	C408.586700,359.616272 411.136292,360.493774 414.833069,360.346344 
	C422.097961,360.056641 429.382874,360.270294 436.659515,360.274567 
	C439.475494,360.276215 442.291473,360.274841 446.156647,360.274841 
	C442.894531,356.130432 440.461456,353.039276 437.994690,349.991333 
	C437.994690,349.991333 438.047272,349.976196 437.906311,349.347839 
	C436.949677,348.209076 435.993011,347.070312 434.997925,345.986694 
	C434.997925,345.986694 435.063110,345.970367 434.947418,345.368927 
	C434.289642,344.611420 433.631836,343.853912 432.879211,342.588593 
	C432.621185,342.379395 432.363190,342.170197 431.920410,341.309662 
	C430.429443,339.403717 428.938446,337.497772 427.269379,335.797455 
	C427.269379,335.797455 427.496338,335.647491 427.307281,335.073029 
	C426.895294,334.649689 426.483337,334.226379 426.067169,333.378662 
	C425.964966,333.074860 425.754425,332.906982 425.231659,332.315704 
	C424.940308,332.059174 424.648956,331.802643 424.437134,331.643036 
	C424.437134,331.643036 424.467438,331.521393 424.229736,330.930145 
	C423.164093,329.601257 422.098450,328.272400 420.996460,326.992249 
	C420.996460,326.992249 421.053284,326.970947 420.881744,326.328766 
	C419.623596,324.784149 418.365417,323.239532 417.092438,321.259644 
	C416.930511,321.010956 416.835510,320.738892 416.906647,319.602051 
	C416.638336,318.157196 416.848938,316.281677 416.010590,315.349518 
	C413.641388,312.715271 414.464478,310.396912 416.183655,307.279602 
	C431.173157,295.605713 436.353607,280.267700 430.838074,263.891388 
	C426.020111,249.586136 410.446411,239.112244 393.061066,238.875107 
	C374.048279,238.930298 355.035461,238.985489 335.361816,238.840408 
	C334.909882,238.895615 334.457916,238.950821 333.426514,238.816360 
	C332.924530,239.551453 332.422516,240.286545 331.706604,241.935501 
	C331.694397,269.664032 331.659088,297.392609 331.682495,325.121124 
	C331.690643,334.742065 331.844208,344.362885 331.674011,354.639679 
	C331.674011,356.421417 331.674011,358.203156 331.674011,360.288330 
	C333.421143,360.175018 334.711823,360.091309 336.921783,360.204468 
	C344.946289,360.142120 352.970764,360.079773 361.604828,360.221771 
	C362.005157,357.480133 362.405487,354.738525 362.996277,351.077209 
	C362.936157,342.043488 362.876038,333.009735 362.991882,323.250671 
	C362.934174,322.511414 362.876434,321.772156 363.007629,320.235779 
	C362.948792,319.149902 362.889923,318.064056 363.008301,316.269806 
	C363.052185,315.541962 363.096069,314.814148 363.050293,314.051514 
	C363.050293,314.051514 363.083282,314.141846 363.987305,314.044434 
	C371.000092,313.102814 377.354950,313.757843 381.004974,321.005676 
	C381.004974,321.005676 380.958221,321.019379 381.121277,321.656708 
	C381.694427,322.308044 382.267578,322.959381 382.927734,324.081909 
	C383.263336,324.396820 383.598969,324.711731 384.105988,325.660828 
	C384.684540,326.305054 385.263062,326.949249 385.852600,327.894958 
	C385.852600,327.894958 386.131927,328.008972 386.280548,328.611023 
	C387.195862,329.709839 388.111176,330.808655 389.099731,332.420288 
	C389.358276,332.628021 389.616791,332.835754 390.061768,333.697968 
	C391.708832,335.796967 393.355927,337.895966 395.067139,340.478973 
	C395.191895,340.821411 395.434967,341.016083 395.928375,341.626038 
	C396.221375,341.857941 396.514404,342.089844 396.828430,342.178375 
M222.651871,334.764801 
	C223.107300,334.687958 223.562729,334.611115 224.930313,334.746094 
	C236.280945,334.677307 247.631577,334.608490 259.653290,334.759308 
	C261.053680,334.745636 262.454041,334.731964 264.195221,335.281738 
	C267.492554,343.186920 270.789886,351.092102 274.371948,359.835297 
	C285.312958,359.835297 296.253998,359.835297 307.846375,359.835297 
	C306.809082,357.740936 305.967804,356.042358 305.210144,353.642059 
	C291.263275,320.165009 277.324493,286.684540 263.360687,253.214569 
	C261.314484,248.310059 260.405884,241.539062 256.693390,239.104111 
	C252.802765,236.552307 246.168915,238.043579 240.732712,238.014771 
	C226.761337,237.940781 226.702393,237.971161 221.418091,250.728943 
	C213.849060,269.002686 206.375916,287.316193 198.336716,306.106293 
	C197.202881,309.063721 196.069061,312.021149 194.475861,315.353790 
	C194.337601,315.914642 194.199341,316.475464 193.626678,317.573334 
	C187.716339,331.657471 181.805984,345.741638 175.704788,360.280579 
	C186.407669,360.280579 196.195236,360.405823 205.972305,360.141724 
	C207.392014,360.103363 209.437286,358.496277 210.040955,357.112457 
	C213.220047,349.825012 216.029358,342.376190 219.008804,334.982605 
	C219.008804,334.982605 218.978195,334.953827 219.731796,334.842621 
	C220.482254,334.744476 221.232727,334.646332 222.651871,334.764801 
M508.105225,440.145386 
	C508.059509,436.848511 508.013794,433.551636 508.980164,429.897522 
	C513.984680,429.723572 518.989197,429.549652 524.689453,429.540741 
	C525.208008,427.908142 525.726624,426.275543 526.416443,424.103821 
	C524.435730,424.103821 523.238098,424.103821 521.281494,423.914154 
	C520.507690,423.979401 519.733887,424.044647 518.184143,423.898285 
	C514.955627,423.898285 511.727142,423.898285 508.599884,423.898285 
	C508.599884,420.153595 508.599884,417.300018 508.599884,414.158020 
	C515.821777,414.158020 522.586487,414.158020 529.515076,414.158020 
	C529.515076,412.165863 529.515076,410.476593 529.515076,408.734955 
	C523.397949,408.734955 517.638672,408.734955 511.305084,408.504700 
	C510.907227,408.581268 510.509399,408.657867 509.381378,408.473694 
	C506.967163,408.473694 504.552948,408.473694 502.121765,408.473694 
	C502.121765,415.725708 502.121765,422.347809 501.949524,429.647797 
	C502.008362,430.106720 502.067200,430.565613 501.959625,431.910095 
	C501.959625,437.026703 501.959625,442.143341 501.959625,447.361633 
	C511.632812,447.361633 520.878235,447.361633 530.239746,447.361633 
	C530.239746,445.409760 530.239746,443.726471 530.239746,442.011841 
	C522.877502,442.011841 515.914124,442.011841 508.457397,441.539703 
	C508.298096,441.377106 508.138794,441.214508 508.105225,440.145386 
M295.401245,414.158997 
	C299.188019,414.158997 302.974762,414.158997 306.923523,414.158997 
	C306.923523,412.121979 306.923523,410.415802 306.923523,408.629578 
	C296.229431,408.629578 285.847504,408.629578 275.287964,408.629578 
	C275.287964,410.507965 275.287964,412.121338 275.287964,414.215027 
	C279.522949,414.215027 283.587341,414.215027 288.371460,414.215027 
	C288.371460,425.100891 288.371460,435.510864 288.566284,446.953949 
	C290.400757,447.099915 292.235229,447.245880 294.678497,447.440277 
	C294.678497,435.823730 294.678497,424.940491 295.401245,414.158997 
M77.764473,289.274811 
	C78.477669,285.984039 77.136612,284.786865 73.816170,284.876587 
	C66.673973,285.069580 59.523605,285.101562 52.379211,285.005005 
	C49.310116,284.963501 48.257404,286.290710 48.284771,289.181824 
	C48.350842,296.161224 48.301319,303.141907 48.266617,310.121948 
	C48.253857,312.688538 49.105637,314.139740 52.033279,314.075623 
	C59.668571,313.908569 67.307976,313.929230 75.776810,313.961151 
	C76.456367,313.069397 77.717690,312.181244 77.723289,311.285278 
	C77.767448,304.220886 77.571861,297.154999 77.764473,289.274811 
M49.139896,239.268250 
	C49.109066,247.841629 49.078239,256.415009 49.247112,265.865997 
	C51.049789,265.977875 52.851669,266.171204 54.655270,266.188904 
	C70.854172,266.347595 87.053375,266.475403 103.845093,266.917969 
	C108.105148,268.275665 112.644524,269.086365 116.573296,271.092773 
	C128.745743,277.309113 134.274078,290.923920 131.554138,306.697998 
	C129.126373,320.777649 119.406441,330.501740 104.424942,331.850494 
	C91.693932,332.996704 78.821724,332.602539 66.010796,332.820007 
	C60.407223,332.915161 54.800690,332.836029 49.098007,332.836029 
	C49.098007,342.288147 49.098007,351.183044 49.098007,360.422760 
	C65.684296,360.422760 81.981789,360.541656 98.275764,360.354706 
	C103.579315,360.293854 108.938217,359.800659 114.161789,358.880615 
	C147.588135,352.993317 167.583969,326.031952 164.144760,291.736877 
	C161.137894,261.753143 133.520004,238.357178 101.061447,238.860138 
	C84.042892,238.919235 67.024330,238.978333 49.139896,239.268250 
M546.101990,238.021179 
	C537.731262,238.090561 529.360535,238.159958 520.311768,238.222290 
	C517.629272,244.477554 514.946716,250.732834 511.839935,257.579803 
	C498.164215,290.361084 484.488525,323.142334 470.180267,356.293976 
	C469.950043,357.515167 469.719818,358.736359 469.433289,360.256256 
	C479.788513,360.256256 489.769531,360.361938 499.741730,360.112915 
	C500.894897,360.084137 501.998871,358.084656 503.600403,356.494904 
	C506.413208,349.353058 509.226044,342.211182 512.955078,334.886932 
	C527.654602,334.830353 542.354126,334.773773 557.474731,335.331085 
	C560.073181,341.558563 562.671631,347.786041 565.324951,354.725830 
	C566.169861,359.536102 569.052856,360.894287 573.737366,360.372711 
	C577.841980,359.915710 582.037048,360.270813 586.192200,360.269562 
	C591.082214,360.268097 595.972229,360.269196 601.264771,360.269196 
	C595.614197,346.730652 590.305725,334.014709 584.999512,321.297791 
	C573.937073,294.785400 562.877502,268.271729 551.810669,241.761139 
	C550.925659,239.641068 550.339050,237.072906 546.101990,238.021179 
M233.388214,437.443634 
	C233.388214,427.854675 233.388214,418.265717 233.388214,408.341003 
	C230.990692,408.461060 229.258743,408.547760 226.912720,408.665222 
	C226.912720,417.766388 226.912720,426.388702 226.912720,436.138458 
	C219.975952,427.224213 213.768951,419.415466 207.771484,411.449005 
	C205.692093,408.686951 203.477875,407.536255 200.122192,408.963959 
	C200.122192,421.752716 200.122192,434.474335 200.122192,447.327454 
	C202.137207,447.327454 203.875092,447.327454 206.179916,447.327454 
	C206.179916,438.368134 206.179916,429.695557 206.179916,419.549042 
	C213.334656,428.686462 219.652847,436.549011 225.711945,444.606384 
	C227.817291,447.405975 229.999069,448.366760 233.386551,446.980835 
	C233.386551,444.044830 233.386551,441.230469 233.388214,437.443634 
M136.284714,414.455505 
	C143.074997,414.455505 149.865265,414.455505 156.801849,414.455505 
	C156.801849,412.105530 156.801849,410.399750 156.801849,408.791260 
	C147.415100,408.791260 138.373566,408.791260 129.335419,408.791260 
	C129.335419,421.825439 129.335419,434.430176 129.335419,447.274353 
	C138.905869,447.274353 148.266495,447.274353 157.652557,447.274353 
	C157.652557,445.296875 157.652557,443.712128 157.652557,441.697327 
	C150.273529,441.697327 143.183533,441.697327 135.823273,441.697327 
	C135.823273,437.556488 135.823273,433.848846 135.823273,429.595581 
	C141.714111,429.595581 147.281784,429.595581 152.895447,429.595581 
	C152.895447,427.444550 152.895447,425.849426 152.895447,423.716309 
	C147.117554,423.716309 141.552475,423.716309 135.683075,423.716309 
	C135.683075,420.560211 135.683075,417.939575 136.284714,414.455505 
M455.907166,424.131561 
	C457.850250,416.668182 455.534424,410.239532 449.213898,409.384033 
	C441.662567,408.361969 433.867188,409.143005 426.312988,409.143005 
	C426.312988,421.951263 426.312988,434.649139 426.312988,447.622375 
	C428.442535,447.527039 430.184570,447.449066 432.272247,447.355591 
	C432.272247,441.761292 432.272247,436.659119 432.272247,431.632050 
	C440.751343,430.301514 440.754181,430.299500 445.286255,436.630920 
	C446.930786,438.928345 448.825928,441.096741 450.133240,443.573914 
	C452.323822,447.724762 455.594116,448.224518 460.243744,447.121155 
	C456.253784,441.479431 452.473297,436.133911 448.692841,430.788391 
	C449.555481,431.468872 450.418121,432.149353 451.280762,432.829803 
	C452.716400,430.162201 454.152008,427.494568 455.907166,424.131561 
M592.983643,426.486786 
	C589.839783,425.417999 586.502625,424.710114 583.614929,423.163147 
	C581.413208,421.983673 578.307800,419.820129 578.206665,417.953339 
	C578.003723,414.208588 581.847656,413.463165 584.836731,413.708862 
	C589.167297,414.064789 593.437744,415.151428 599.037109,416.161469 
	C597.771057,413.677063 597.269104,410.728149 595.697205,409.955231 
	C589.645691,406.979767 582.928406,406.240814 577.035278,409.784607 
	C574.361938,411.392242 572.256226,415.212128 571.498718,418.408966 
	C570.599731,422.203186 573.033447,425.478424 576.802490,427.069489 
	C579.699890,428.292664 582.781067,429.075897 585.699890,430.254333 
	C589.344238,431.725739 594.572449,431.768005 593.946838,437.733368 
	C593.594910,441.089142 588.978333,442.819550 582.974548,442.248322 
	C582.477722,442.201050 581.955688,442.209656 581.492432,442.053101 
	C578.016479,440.878235 574.552368,439.668457 571.143372,438.489899 
	C569.668335,443.484741 572.083923,446.178741 576.418152,446.844971 
	C581.116089,447.567139 586.010498,448.118866 590.687012,447.585632 
	C596.219971,446.954681 599.945190,442.884766 600.470581,438.304047 
	C601.098938,432.825562 598.687317,429.007568 592.983643,426.486786 
M375.551483,421.508301 
	C375.514923,425.333466 375.745880,429.184143 375.383850,432.978271 
	C374.716278,439.974030 369.598663,443.552521 362.751923,442.151489 
	C357.984131,441.175842 355.256958,437.483490 355.144836,431.307281 
	C355.009644,423.861420 355.112854,416.411285 355.112854,408.821350 
	C352.812195,408.821350 350.966522,408.821350 349.107300,408.821350 
	C349.107300,417.555817 348.733826,425.886810 349.213318,434.168365 
	C349.684387,442.305359 355.389374,447.465118 363.491333,448.171997 
	C372.052795,448.918945 379.781586,444.877380 380.690125,437.245300 
	C381.809326,427.844025 380.957520,418.208130 380.957520,408.388916 
	C379.328278,408.478180 377.586121,408.573608 375.553375,408.684998 
	C375.553375,412.913300 375.553375,416.716187 375.551483,421.508301 
M49.484619,408.448120 
	C49.248524,408.968445 48.674786,409.630707 48.825245,409.988495 
	C53.851147,421.941589 58.878124,433.895874 64.147835,445.741943 
	C64.618362,446.799683 66.758186,447.697540 68.071411,447.632507 
	C69.362419,447.568604 71.210930,446.471649 71.739609,445.330078 
	C74.812416,438.694916 77.570793,431.914032 80.430336,425.180237 
	C82.728165,419.769257 85.018715,414.355194 87.334305,408.890991 
	C82.396217,407.425232 80.214897,409.114807 78.640991,413.313507 
	C75.531006,421.609955 71.811966,429.678101 67.866249,438.967163 
	C63.889484,429.499146 60.271564,421.332733 57.054932,413.011261 
	C55.733070,409.591644 54.051655,407.622528 49.484619,408.448120 
z"/>
<path fill="#1A405C" opacity="1.000000" stroke="none" 
	d="
M399.574402,346.128357 
	C399.257050,346.119751 399.040802,345.967560 398.935913,345.071472 
	C398.195618,343.725403 397.445068,342.979523 396.694519,342.233673 
	C396.694519,342.233673 396.828430,342.178375 396.764587,341.961426 
	C396.399323,341.517334 396.097839,341.290192 395.796387,341.063019 
	C395.434967,341.016083 395.191895,340.821411 395.032104,339.853729 
	C395.056030,335.704224 393.257782,333.717896 389.875305,333.043488 
	C389.616791,332.835754 389.358276,332.628021 389.046234,331.812897 
	C388.039124,330.139984 387.085541,329.074493 386.131927,328.008972 
	C386.131927,328.008972 385.852600,327.894958 385.860413,327.364624 
	C385.223694,326.231720 384.579163,325.629181 383.934601,325.026611 
	C383.598969,324.711731 383.263336,324.396820 382.899475,323.466553 
	C382.233551,322.240570 381.595886,321.629974 380.958221,321.019379 
	C380.958221,321.019379 381.004974,321.005676 380.991333,320.649719 
	C378.265381,312.502197 371.186707,309.225342 363.873322,312.454346 
	C363.445129,312.643433 363.339203,313.562500 363.083282,314.141846 
	C363.083282,314.141846 363.050293,314.051514 362.816681,314.064819 
	C362.665741,315.044800 362.748413,316.011475 362.831085,316.978180 
	C362.889923,318.064056 362.948792,319.149902 362.699158,320.828369 
	C362.532440,322.272614 362.674194,323.124329 362.815918,323.976013 
	C362.876038,333.009735 362.936157,342.043488 362.536743,351.637512 
	C361.714417,354.456299 361.351624,356.714722 360.520935,358.979919 
	C352.034119,358.991547 344.015228,358.996399 335.671295,358.854492 
	C334.563354,357.138916 333.780457,355.570068 332.999817,353.532471 
	C333.006012,315.709930 333.009979,278.356140 333.256592,240.833527 
	C333.668182,240.111816 333.837067,239.558929 334.005981,239.006027 
	C334.457916,238.950821 334.909882,238.895615 335.988037,239.231613 
	C355.158295,239.733719 373.702301,239.852417 392.246460,239.919022 
	C392.820343,239.921082 393.396210,239.383102 393.971161,239.096924 
	C410.446411,239.112244 426.020111,249.586136 430.838074,263.891388 
	C436.353607,280.267700 431.173157,295.605713 415.709961,307.690613 
	C413.375763,308.877899 411.515228,309.654144 409.160980,310.636414 
	C412.021851,314.305695 414.414642,317.374573 416.807434,320.443481 
	C416.835510,320.738892 416.930511,321.010956 417.074677,321.863525 
	C418.389038,323.968597 419.721161,325.469757 421.053284,326.970947 
	C421.053284,326.970947 420.996460,326.992249 421.011902,327.354462 
	C422.174042,328.984924 423.320740,330.253143 424.467438,331.521393 
	C424.467438,331.521393 424.437134,331.643036 424.414185,331.921173 
	C424.739319,332.424530 425.087433,332.649750 425.435516,332.875000 
	C425.754425,332.906982 425.964966,333.074860 426.084930,333.935211 
	C426.567230,334.877014 427.031799,335.262238 427.496338,335.647491 
	C427.496338,335.647491 427.269379,335.797455 427.247650,336.067230 
	C428.852325,338.211670 430.478760,340.086334 432.105164,341.960999 
	C432.363190,342.170197 432.621185,342.379395 432.945038,343.192383 
	C433.694946,344.520905 434.379028,345.245636 435.063110,345.970367 
	C435.063110,345.970367 434.997925,345.986694 435.012207,346.330658 
	C436.033417,347.775146 437.040344,348.875671 438.047272,349.976196 
	C438.047272,349.976196 437.994690,349.991333 438.006226,350.359314 
	C439.127319,353.291931 440.236877,355.856567 441.568176,358.933624 
	C432.094238,358.933624 422.830292,359.214600 413.608124,358.718445 
	C411.533813,358.606873 409.542572,355.854034 407.626221,354.187042 
	C405.345276,352.202911 403.186340,350.078522 400.974548,348.014862 
	C400.974548,348.014862 401.002655,348.002258 400.954529,347.686279 
	C400.462433,346.956329 400.018402,346.542328 399.574402,346.128357 
M363.209076,288.841553 
	C363.872101,289.221771 364.531433,289.925079 365.198669,289.932648 
	C372.580139,290.016144 379.963715,290.045807 387.344025,289.925507 
	C388.231934,289.911041 389.104065,288.925903 390.696930,288.103119 
	C398.081207,286.115875 401.369720,282.275574 400.952881,276.126282 
	C400.547516,270.146088 396.338013,265.812408 389.238037,265.428589 
	C380.665588,264.965179 372.048981,265.318848 362.985870,265.318848 
	C362.985870,273.165253 362.985870,280.616241 363.209076,288.841553 
z"/>
<path fill="#1B405C" opacity="1.000000" stroke="none" 
	d="
M198.861847,305.612701 
	C206.375916,287.316193 213.849060,269.002686 221.418091,250.728943 
	C226.702393,237.971161 226.761337,237.940781 240.732712,238.014771 
	C246.168915,238.043579 252.802765,236.552307 256.693390,239.104111 
	C260.405884,241.539062 261.314484,248.310059 263.360687,253.214569 
	C277.324493,286.684540 291.263275,320.165009 305.137970,354.463867 
	C305.352112,358.470398 303.597595,359.078430 300.818085,359.041534 
	C291.909149,358.923218 282.997711,358.997375 274.087219,358.997284 
	C270.789886,351.092102 267.492554,343.186920 263.920715,334.607605 
	C262.098297,333.622711 260.550385,333.311981 258.533630,333.000061 
	C246.709457,333.000122 235.354080,333.001343 223.665878,333.000427 
	C222.889221,332.998657 222.445419,332.999023 221.650116,333.002563 
	C220.525146,333.655090 219.751663,334.304443 218.978180,334.953827 
	C218.978195,334.953827 219.008804,334.982605 218.626282,335.033875 
	C217.607605,335.567566 216.632095,335.919830 216.389206,336.553070 
	C214.497772,341.484131 212.587830,346.418793 210.996048,351.451202 
	C209.230240,357.033752 206.889709,358.973419 200.984894,358.990173 
	C195.172195,359.006683 189.359177,359.030426 183.546738,358.989197 
	C178.630737,358.954315 178.194061,358.328400 180.083130,353.844147 
	C184.888550,342.437073 189.775208,331.064117 194.531174,319.636688 
	C194.815536,318.953430 194.237701,317.911407 194.061066,317.036316 
	C194.199341,316.475464 194.337601,315.914642 195.028885,315.020813 
	C196.675217,311.662811 197.768539,308.637756 198.861847,305.612701 
M236.655685,309.482697 
	C242.260696,309.482697 247.865707,309.482697 254.138641,309.482697 
	C249.911728,298.662811 245.952820,288.528870 241.620514,277.439209 
	C237.314163,288.493683 233.385162,298.579498 229.137360,309.483704 
	C231.843903,309.483704 233.777084,309.483704 236.655685,309.482697 
z"/>
<path fill="#1B415C" opacity="1.000000" stroke="none" 
	d="
M512.038818,335.069275 
	C509.226044,342.211182 506.413208,349.353058 502.972351,356.805603 
	C500.379547,357.742981 498.432739,358.833252 496.446777,358.910004 
	C490.318756,359.146820 484.155701,359.284332 478.048523,358.856720 
	C475.580261,358.683899 473.221466,356.948120 470.812836,355.923615 
	C484.488525,323.142334 498.164215,290.361084 512.380981,257.204895 
	C515.611267,250.629745 518.300537,244.429535 520.989807,238.229340 
	C529.360535,238.159958 537.731262,238.090561 546.624573,238.449371 
	C548.772827,241.272339 550.831604,243.481903 551.948730,246.094147 
	C556.612183,256.998962 560.917847,268.056091 565.492432,278.999786 
	C575.226685,302.286682 585.048584,325.536926 594.826599,348.805542 
	C595.403381,350.178192 595.946838,351.567413 596.441040,352.971741 
	C597.920044,357.174805 596.778564,358.891998 592.335938,358.980530 
	C588.348938,359.059998 584.354248,358.872314 580.371765,359.027435 
	C574.673340,359.249420 568.906921,359.906464 565.270020,354.013519 
	C562.671631,347.786041 560.073181,341.558563 557.120361,334.658234 
	C556.222107,333.670654 555.679443,333.083588 555.134033,333.081085 
	C541.693481,333.019257 528.252258,332.978516 514.812622,333.097137 
	C513.882263,333.105347 512.963135,334.382324 512.038818,335.069275 
M546.897522,308.855682 
	C543.039001,298.771637 539.180542,288.687592 534.848328,277.365356 
	C532.007629,284.645142 529.676086,290.338684 527.567871,296.113770 
	C525.936035,300.583618 524.583740,305.155487 523.527710,310.413849 
	C530.865784,310.564514 538.203552,310.738037 545.542419,310.809204 
	C545.984924,310.813477 546.435303,310.002045 546.897522,308.855682 
z"/>
<path fill="#1B405B" opacity="1.000000" stroke="none" 
	d="
M101.974098,239.070160 
	C133.520004,238.357178 161.137894,261.753143 164.144760,291.736877 
	C167.583969,326.031952 147.588135,352.993317 114.161789,358.880615 
	C108.938217,359.800659 103.579315,360.293854 98.275764,360.354706 
	C81.981789,360.541656 65.684296,360.422760 49.098007,360.422760 
	C49.098007,351.183044 49.098007,342.288147 49.098007,332.836029 
	C54.800690,332.836029 60.407223,332.915161 66.010796,332.820007 
	C78.821724,332.602539 91.693932,332.996704 104.424942,331.850494 
	C119.406441,330.501740 129.126373,320.777649 131.554138,306.697998 
	C134.274078,290.923920 128.745743,277.309113 116.573296,271.092773 
	C112.644524,269.086365 108.105148,268.275665 103.299255,266.369720 
	C100.993797,265.546448 99.235092,265.039612 97.474396,265.032623 
	C81.332260,264.968475 65.189789,264.991089 49.047409,264.988403 
	C49.078239,256.415009 49.109066,247.841629 49.870716,239.444305 
	C67.155174,239.730835 83.708778,239.850235 100.262604,239.914230 
	C100.832001,239.916428 101.403549,239.364044 101.974098,239.070160 
z"/>
<path fill="#27465C" opacity="1.000000" stroke="none" 
	d="
M233.387390,437.929871 
	C233.386551,441.230469 233.386551,444.044830 233.386551,446.980835 
	C229.999069,448.366760 227.817291,447.405975 225.711945,444.606384 
	C219.652847,436.549011 213.334656,428.686462 206.179916,419.549042 
	C206.179916,429.695557 206.179916,438.368134 206.179916,447.327454 
	C203.875092,447.327454 202.137207,447.327454 200.122192,447.327454 
	C200.122192,434.474335 200.122192,421.752716 200.122192,408.963959 
	C203.477875,407.536255 205.692093,408.686951 207.771484,411.449005 
	C213.768951,419.415466 219.975952,427.224213 226.912720,436.138458 
	C226.912720,426.388702 226.912720,417.766388 226.912720,408.665222 
	C229.258743,408.547760 230.990692,408.461060 233.388214,408.341003 
	C233.388214,418.265717 233.388214,427.854675 233.387390,437.929871 
z"/>
<path fill="#2E4C61" opacity="1.000000" stroke="none" 
	d="
M135.983887,414.887207 
	C135.683075,417.939575 135.683075,420.560211 135.683075,423.716309 
	C141.552475,423.716309 147.117554,423.716309 152.895447,423.716309 
	C152.895447,425.849426 152.895447,427.444550 152.895447,429.595581 
	C147.281784,429.595581 141.714111,429.595581 135.823273,429.595581 
	C135.823273,433.848846 135.823273,437.556488 135.823273,441.697327 
	C143.183533,441.697327 150.273529,441.697327 157.652557,441.697327 
	C157.652557,443.712128 157.652557,445.296875 157.652557,447.274353 
	C148.266495,447.274353 138.905869,447.274353 129.335419,447.274353 
	C129.335419,434.430176 129.335419,421.825439 129.335419,408.791260 
	C138.373566,408.791260 147.415100,408.791260 156.801849,408.791260 
	C156.801849,410.399750 156.801849,412.105530 156.801849,414.455505 
	C149.865265,414.455505 143.074997,414.455505 135.983887,414.887207 
z"/>
<path fill="#27465C" opacity="1.000000" stroke="none" 
	d="
M455.747406,424.479248 
	C454.152008,427.494568 452.716400,430.162201 451.280762,432.829803 
	C450.418121,432.149353 449.555481,431.468872 448.692841,430.788391 
	C452.473297,436.133911 456.253784,441.479431 460.243744,447.121155 
	C455.594116,448.224518 452.323822,447.724762 450.133240,443.573914 
	C448.825928,441.096741 446.930786,438.928345 445.286255,436.630920 
	C440.754181,430.299500 440.751343,430.301514 432.272247,431.632050 
	C432.272247,436.659119 432.272247,441.761292 432.272247,447.355591 
	C430.184570,447.449066 428.442535,447.527039 426.312988,447.622375 
	C426.312988,434.649139 426.312988,421.951263 426.312988,409.143005 
	C433.867188,409.143005 441.662567,408.361969 449.213898,409.384033 
	C455.534424,410.239532 457.850250,416.668182 455.747406,424.479248 
M432.063599,419.481201 
	C432.063599,421.392517 432.063599,423.303802 432.063599,425.492950 
	C436.921204,425.492950 441.067627,425.702789 445.181183,425.424988 
	C448.342621,425.211517 450.463470,423.310730 450.501099,419.923492 
	C450.538635,416.544281 448.456238,414.531891 445.321228,414.288330 
	C441.076538,413.958557 436.786926,414.206329 432.308716,414.206329 
	C432.208771,415.976746 432.135681,417.271667 432.063599,419.481201 
z"/>
<path fill="#2A485D" opacity="1.000000" stroke="none" 
	d="
M593.318298,426.652222 
	C598.687317,429.007568 601.098938,432.825562 600.470581,438.304047 
	C599.945190,442.884766 596.219971,446.954681 590.687012,447.585632 
	C586.010498,448.118866 581.116089,447.567139 576.418152,446.844971 
	C572.083923,446.178741 569.668335,443.484741 571.143372,438.489899 
	C574.552368,439.668457 578.016479,440.878235 581.492432,442.053101 
	C581.955688,442.209656 582.477722,442.201050 582.974548,442.248322 
	C588.978333,442.819550 593.594910,441.089142 593.946838,437.733368 
	C594.572449,431.768005 589.344238,431.725739 585.699890,430.254333 
	C582.781067,429.075897 579.699890,428.292664 576.802490,427.069489 
	C573.033447,425.478424 570.599731,422.203186 571.498718,418.408966 
	C572.256226,415.212128 574.361938,411.392242 577.035278,409.784607 
	C582.928406,406.240814 589.645691,406.979767 595.697205,409.955231 
	C597.269104,410.728149 597.771057,413.677063 599.037109,416.161469 
	C593.437744,415.151428 589.167297,414.064789 584.836731,413.708862 
	C581.847656,413.463165 578.003723,414.208588 578.206665,417.953339 
	C578.307800,419.820129 581.413208,421.983673 583.614929,423.163147 
	C586.502625,424.710114 589.839783,425.417999 593.318298,426.652222 
z"/>
<path fill="#27465C" opacity="1.000000" stroke="none" 
	d="
M375.552429,421.013672 
	C375.553375,416.716187 375.553375,412.913300 375.553375,408.684998 
	C377.586121,408.573608 379.328278,408.478180 380.957520,408.388916 
	C380.957520,418.208130 381.809326,427.844025 380.690125,437.245300 
	C379.781586,444.877380 372.052795,448.918945 363.491333,448.171997 
	C355.389374,447.465118 349.684387,442.305359 349.213318,434.168365 
	C348.733826,425.886810 349.107300,417.555817 349.107300,408.821350 
	C350.966522,408.821350 352.812195,408.821350 355.112854,408.821350 
	C355.112854,416.411285 355.009644,423.861420 355.144836,431.307281 
	C355.256958,437.483490 357.984131,441.175842 362.751923,442.151489 
	C369.598663,443.552521 374.716278,439.974030 375.383850,432.978271 
	C375.745880,429.184143 375.514923,425.333466 375.552429,421.013672 
z"/>
<path fill="#2A495F" opacity="1.000000" stroke="none" 
	d="
M49.843010,408.421082 
	C54.051655,407.622528 55.733070,409.591644 57.054932,413.011261 
	C60.271564,421.332733 63.889484,429.499146 67.866249,438.967163 
	C71.811966,429.678101 75.531006,421.609955 78.640991,413.313507 
	C80.214897,409.114807 82.396217,407.425232 87.334305,408.890991 
	C85.018715,414.355194 82.728165,419.769257 80.430336,425.180237 
	C77.570793,431.914032 74.812416,438.694916 71.739609,445.330078 
	C71.210930,446.471649 69.362419,447.568604 68.071411,447.632507 
	C66.758186,447.697540 64.618362,446.799683 64.147835,445.741943 
	C58.878124,433.895874 53.851147,421.941589 48.825245,409.988495 
	C48.674786,409.630707 49.248524,408.968445 49.843010,408.421082 
z"/>
<path fill="#D2B869" opacity="1.000000" stroke="none" 
	d="
M74.945740,313.875061 
	C67.307976,313.929230 59.668571,313.908569 52.033279,314.075623 
	C49.105637,314.139740 48.253857,312.688538 48.266617,310.121948 
	C48.301319,303.141907 48.350842,296.161224 48.284771,289.181824 
	C48.257404,286.290710 49.310116,284.963501 52.379211,285.005005 
	C59.523605,285.101562 66.673973,285.069580 73.816170,284.876587 
	C77.136612,284.786865 78.477669,285.984039 77.367233,289.674774 
	C76.650162,290.022552 76.328262,289.993164 75.961319,289.613281 
	C72.793800,285.974548 69.108047,286.551910 66.971840,290.334381 
	C65.733475,292.527100 63.859589,294.355164 62.324245,296.387054 
	C58.746262,301.122162 55.200077,305.881317 50.806423,311.744476 
	C55.599266,312.253510 58.790604,312.592468 62.443100,312.953613 
	C66.918091,313.275574 70.931915,313.575317 74.945740,313.875061 
z"/>
<path fill="#2A495F" opacity="1.000000" stroke="none" 
	d="
M288.371460,445.920837 
	C288.371460,435.510864 288.371460,425.100891 288.371460,414.215027 
	C283.587341,414.215027 279.522949,414.215027 275.287964,414.215027 
	C275.287964,412.121338 275.287964,410.507965 275.287964,408.629578 
	C285.847504,408.629578 296.229431,408.629578 306.923523,408.629578 
	C306.923523,410.415802 306.923523,412.121979 306.923523,414.158997 
	C302.974762,414.158997 299.188019,414.158997 294.624664,414.280579 
	C293.556976,415.958008 293.032959,417.511078 293.014404,419.070160 
	C292.926392,426.467194 292.798492,433.871979 293.052521,441.261353 
	C293.177673,444.901917 292.124725,446.562134 288.371460,445.920837 
z"/>
<path fill="#2A495F" opacity="1.000000" stroke="none" 
	d="
M510.111542,408.734467 
	C510.509399,408.657867 510.907227,408.581268 511.860962,408.961700 
	C517.551270,409.807709 522.685669,410.196716 527.820129,410.585724 
	C527.802124,411.222107 527.784180,411.858459 527.766174,412.494812 
	C526.263489,412.661987 524.762878,412.945526 523.257629,412.973480 
	C519.430603,413.044586 515.503723,412.499268 511.814819,413.217529 
	C509.997040,413.571533 507.505127,416.050293 507.307220,417.793365 
	C507.028320,420.249634 508.084564,424.717407 509.481079,425.113647 
	C512.317505,425.918396 515.764648,424.570526 518.960083,424.109924 
	C519.733887,424.044647 520.507690,423.979401 521.838623,424.247528 
	C522.928406,426.179169 523.461060,427.777435 523.993713,429.375732 
	C518.989197,429.549652 513.984680,429.723572 508.335907,430.372711 
	C507.787598,434.249237 507.883545,437.650574 507.979492,441.051910 
	C508.138794,441.214508 508.298096,441.377106 508.949921,442.038940 
	C515.891602,442.857422 522.340820,443.176666 528.789978,443.495911 
	C528.784668,444.142670 528.779297,444.789429 528.773926,445.436218 
	C527.436707,445.621124 526.101135,445.950867 524.762085,445.965668 
	C519.280334,446.026428 513.789246,445.806030 508.317963,446.052765 
	C504.314941,446.233276 503.048370,444.387482 502.959930,440.743378 
	C502.881165,437.498901 502.419006,434.263794 502.126038,431.024536 
	C502.067200,430.565613 502.008362,430.106720 502.307434,428.998779 
	C502.777710,426.064667 502.994812,423.778961 502.981750,421.494629 
	C502.949585,415.867523 501.517029,409.519745 510.111542,408.734467 
z"/>
<path fill="#223A49" opacity="1.000000" stroke="none" 
	d="
M565.297485,354.369690 
	C568.906921,359.906464 574.673340,359.249420 580.371765,359.027435 
	C584.354248,358.872314 588.348938,359.059998 592.335938,358.980530 
	C596.778564,358.891998 597.920044,357.174805 596.441040,352.971741 
	C595.946838,351.567413 595.403381,350.178192 594.826599,348.805542 
	C585.048584,325.536926 575.226685,302.286682 565.492432,278.999786 
	C560.917847,268.056091 556.612183,256.998962 551.948730,246.094147 
	C550.831604,243.481903 548.772827,241.272339 547.084961,238.550339 
	C550.339050,237.072906 550.925659,239.641068 551.810669,241.761139 
	C562.877502,268.271729 573.937073,294.785400 584.999512,321.297791 
	C590.305725,334.014709 595.614197,346.730652 601.264771,360.269196 
	C595.972229,360.269196 591.082214,360.268097 586.192200,360.269562 
	C582.037048,360.270813 577.841980,359.915710 573.737366,360.372711 
	C569.052856,360.894287 566.169861,359.536102 565.297485,354.369690 
z"/>
<path fill="#BC9A45" opacity="1.000000" stroke="none" 
	d="
M75.361275,313.918091 
	C70.931915,313.575317 66.918091,313.275574 62.454594,312.588806 
	C64.618767,308.143036 67.296234,304.123474 69.826500,300.013336 
	C71.884438,296.670471 76.514404,294.904877 76.004280,289.986572 
	C76.328262,289.993164 76.650162,290.022552 77.210022,290.082153 
	C77.571861,297.154999 77.767448,304.220886 77.723289,311.285278 
	C77.717690,312.181244 76.456367,313.069397 75.361275,313.918091 
z"/>
<path fill="#223A49" opacity="1.000000" stroke="none" 
	d="
M193.843872,317.304810 
	C194.237701,317.911407 194.815536,318.953430 194.531174,319.636688 
	C189.775208,331.064117 184.888550,342.437073 180.083130,353.844147 
	C178.194061,358.328400 178.630737,358.954315 183.546738,358.989197 
	C189.359177,359.030426 195.172195,359.006683 200.984894,358.990173 
	C206.889709,358.973419 209.230240,357.033752 210.996048,351.451202 
	C212.587830,346.418793 214.497772,341.484131 216.389206,336.553070 
	C216.632095,335.919830 217.607605,335.567566 218.605377,335.034271 
	C216.029358,342.376190 213.220047,349.825012 210.040955,357.112457 
	C209.437286,358.496277 207.392014,360.103363 205.972305,360.141724 
	C196.195236,360.405823 186.407669,360.280579 175.704788,360.280579 
	C181.805984,345.741638 187.716339,331.657471 193.843872,317.304810 
z"/>
<path fill="#27465C" opacity="1.000000" stroke="none" 
	d="
M502.042847,431.467316 
	C502.419006,434.263794 502.881165,437.498901 502.959930,440.743378 
	C503.048370,444.387482 504.314941,446.233276 508.317963,446.052765 
	C513.789246,445.806030 519.280334,446.026428 524.762085,445.965668 
	C526.101135,445.950867 527.436707,445.621124 528.773926,445.436218 
	C528.779297,444.789429 528.784668,444.142670 528.789978,443.495911 
	C522.340820,443.176666 515.891602,442.857422 509.196594,442.274994 
	C515.914124,442.011841 522.877502,442.011841 530.239746,442.011841 
	C530.239746,443.726471 530.239746,445.409760 530.239746,447.361633 
	C520.878235,447.361633 511.632812,447.361633 501.959625,447.361633 
	C501.959625,442.143341 501.959625,437.026703 502.042847,431.467316 
z"/>
<path fill="#27465C" opacity="1.000000" stroke="none" 
	d="
M518.572144,424.004089 
	C515.764648,424.570526 512.317505,425.918396 509.481079,425.113647 
	C508.084564,424.717407 507.028320,420.249634 507.307220,417.793365 
	C507.505127,416.050293 509.997040,413.571533 511.814819,413.217529 
	C515.503723,412.499268 519.430603,413.044586 523.257629,412.973480 
	C524.762878,412.945526 526.263489,412.661987 527.766174,412.494812 
	C527.784180,411.858459 527.802124,411.222107 527.820129,410.585724 
	C522.685669,410.196716 517.551270,409.807709 512.148132,409.076843 
	C517.638672,408.734955 523.397949,408.734955 529.515076,408.734955 
	C529.515076,410.476593 529.515076,412.165863 529.515076,414.158020 
	C522.586487,414.158020 515.821777,414.158020 508.599884,414.158020 
	C508.599884,417.300018 508.599884,420.153595 508.599884,423.898285 
	C511.727142,423.898285 514.955627,423.898285 518.572144,424.004089 
z"/>
<path fill="#223A49" opacity="1.000000" stroke="none" 
	d="
M401.058716,348.345642 
	C403.186340,350.078522 405.345276,352.202911 407.626221,354.187042 
	C409.542572,355.854034 411.533813,358.606873 413.608124,358.718445 
	C422.830292,359.214600 432.094238,358.933624 441.568176,358.933624 
	C440.236877,355.856567 439.127319,353.291931 438.023071,350.337738 
	C440.461456,353.039276 442.894531,356.130432 446.156647,360.274841 
	C442.291473,360.274841 439.475494,360.276215 436.659515,360.274567 
	C429.382874,360.270294 422.097961,360.056641 414.833069,360.346344 
	C411.136292,360.493774 408.586700,359.616272 406.687561,356.282227 
	C405.144409,353.573181 403.013245,351.199066 401.058716,348.345642 
z"/>
<path fill="#1B3645" opacity="1.000000" stroke="none" 
	d="
M333.013916,241.002319 
	C333.009979,278.356140 333.006012,315.709930 332.733276,353.528259 
	C332.286743,353.989746 332.109039,353.986755 331.931366,353.983765 
	C331.844208,344.362885 331.690643,334.742065 331.682495,325.121124 
	C331.659088,297.392609 331.694397,269.664032 332.086914,241.472565 
	C332.649414,241.007202 332.831665,241.004761 333.013916,241.002319 
z"/>
<path fill="#1B3645" opacity="1.000000" stroke="none" 
	d="
M512.496948,334.978088 
	C512.963135,334.382324 513.882263,333.105347 514.812622,333.097137 
	C528.252258,332.978516 541.693481,333.019257 555.134033,333.081085 
	C555.679443,333.083588 556.222107,333.670654 556.909851,334.351288 
	C542.354126,334.773773 527.654602,334.830353 512.496948,334.978088 
z"/>
<path fill="#1B3645" opacity="1.000000" stroke="none" 
	d="
M223.998718,333.002563 
	C235.354080,333.001343 246.709457,333.000122 258.530243,333.256470 
	C258.991180,333.855957 258.986694,334.197815 258.982208,334.539703 
	C247.631577,334.608490 236.280945,334.677307 224.471527,334.384918 
	C224.008072,333.683350 224.003403,333.342957 223.998718,333.002563 
z"/>
<path fill="#1B3645" opacity="1.000000" stroke="none" 
	d="
M393.516113,238.986008 
	C393.396210,239.383102 392.820343,239.921082 392.246460,239.919022 
	C373.702301,239.852417 355.158295,239.733719 336.318481,239.331757 
	C355.035461,238.985489 374.048279,238.930298 393.516113,238.986008 
z"/>
<path fill="#1B3645" opacity="1.000000" stroke="none" 
	d="
M49.147263,265.427185 
	C65.189789,264.991089 81.332260,264.968475 97.474396,265.032623 
	C99.235092,265.039612 100.993797,265.546448 103.002960,266.216858 
	C87.053375,266.475403 70.854172,266.347595 54.655270,266.188904 
	C52.851669,266.171204 51.049789,265.977875 49.147263,265.427185 
z"/>
<path fill="#1B3645" opacity="1.000000" stroke="none" 
	d="
M101.517776,238.965149 
	C101.403549,239.364044 100.832001,239.916428 100.262604,239.914230 
	C83.708778,239.850235 67.155174,239.730835 50.303654,239.328888 
	C67.024330,238.978333 84.042892,238.919235 101.517776,238.965149 
z"/>
<path fill="#27465C" opacity="1.000000" stroke="none" 
	d="
M509.746460,408.604065 
	C501.517029,409.519745 502.949585,415.867523 502.981750,421.494629 
	C502.994812,423.778961 502.777710,426.064667 502.393555,428.659790 
	C502.121765,422.347809 502.121765,415.725708 502.121765,408.473694 
	C504.552948,408.473694 506.967163,408.473694 509.746460,408.604065 
z"/>
<path fill="#223A49" opacity="1.000000" stroke="none" 
	d="
M470.496552,356.108795 
	C473.221466,356.948120 475.580261,358.683899 478.048523,358.856720 
	C484.155701,359.284332 490.318756,359.146820 496.446777,358.910004 
	C498.432739,358.833252 500.379547,357.742981 502.734985,357.057587 
	C501.998871,358.084656 500.894897,360.084137 499.741730,360.112915 
	C489.769531,360.361938 479.788513,360.256256 469.433289,360.256256 
	C469.719818,358.736359 469.950043,357.515167 470.496552,356.108795 
z"/>
<path fill="#223A49" opacity="1.000000" stroke="none" 
	d="
M363.535278,314.093140 
	C363.339203,313.562500 363.445129,312.643433 363.873322,312.454346 
	C371.186707,309.225342 378.265381,312.502197 380.977173,320.669556 
	C377.354950,313.757843 371.000092,313.102814 363.535278,314.093140 
z"/>
<path fill="#EAF0F1" opacity="1.000000" stroke="none" 
	d="
M416.857056,320.022766 
	C414.414642,317.374573 412.021851,314.305695 409.160980,310.636414 
	C411.515228,309.654144 413.375763,308.877899 415.597046,308.008972 
	C414.464478,310.396912 413.641388,312.715271 416.010590,315.349518 
	C416.848938,316.281677 416.638336,318.157196 416.857056,320.022766 
z"/>
<path fill="#1B3645" opacity="1.000000" stroke="none" 
	d="
M274.229584,359.416290 
	C282.997711,358.997375 291.909149,358.923218 300.818085,359.041534 
	C303.597595,359.078430 305.352112,358.470398 305.096191,354.814728 
	C305.967804,356.042358 306.809082,357.740936 307.846375,359.835297 
	C296.253998,359.835297 285.312958,359.835297 274.229584,359.416290 
z"/>
<path fill="#1B3645" opacity="1.000000" stroke="none" 
	d="
M288.468872,446.437378 
	C292.124725,446.562134 293.177673,444.901917 293.052521,441.261353 
	C292.798492,433.871979 292.926392,426.467194 293.014404,419.070160 
	C293.032959,417.511078 293.556976,415.958008 294.263306,414.229706 
	C294.678497,424.940491 294.678497,435.823730 294.678497,447.440277 
	C292.235229,447.245880 290.400757,447.099915 288.468872,446.437378 
z"/>
<path fill="#223A49" opacity="1.000000" stroke="none" 
	d="
M520.650757,238.225800 
	C518.300537,244.429535 515.611267,250.629745 512.593140,256.909027 
	C514.946716,250.732834 517.629272,244.477554 520.650757,238.225800 
z"/>
<path fill="#1B3645" opacity="1.000000" stroke="none" 
	d="
M335.996338,359.001251 
	C344.015228,358.996399 352.034119,358.991547 360.524963,359.241150 
	C360.996368,359.669556 360.995819,359.843506 360.995270,360.017456 
	C352.970764,360.079773 344.946289,360.142120 336.460236,359.854462 
	C335.997894,359.336700 335.997101,359.168976 335.996338,359.001251 
z"/>
<path fill="#27465C" opacity="1.000000" stroke="none" 
	d="
M508.042358,440.598633 
	C507.883545,437.650574 507.787598,434.249237 507.829865,430.551331 
	C508.013794,433.551636 508.059509,436.848511 508.042358,440.598633 
z"/>
<path fill="#223A49" opacity="1.000000" stroke="none" 
	d="
M335.671295,358.854492 
	C335.997101,359.168976 335.997894,359.336700 336.000610,359.756042 
	C334.711823,360.091309 333.421143,360.175018 331.674011,360.288330 
	C331.674011,358.203156 331.674011,356.421417 331.802673,354.311707 
	C332.109039,353.986755 332.286743,353.989746 332.731018,353.997009 
	C333.780457,355.570068 334.563354,357.138916 335.671295,358.854492 
z"/>
<path fill="#223A49" opacity="1.000000" stroke="none" 
	d="
M361.300049,360.119629 
	C360.995819,359.843506 360.996368,359.669556 360.992889,359.234375 
	C361.351624,356.714722 361.714417,354.456299 362.441528,352.097351 
	C362.405487,354.738525 362.005157,357.480133 361.300049,360.119629 
z"/>
<path fill="#27465C" opacity="1.000000" stroke="none" 
	d="
M524.341553,429.458221 
	C523.461060,427.777435 522.928406,426.179169 522.218018,424.342346 
	C523.238098,424.103821 524.435730,424.103821 526.416443,424.103821 
	C525.726624,426.275543 525.208008,427.908142 524.341553,429.458221 
z"/>
<path fill="#223A49" opacity="1.000000" stroke="none" 
	d="
M198.599274,305.859497 
	C197.768539,308.637756 196.675217,311.662811 195.258575,314.833252 
	C196.069061,312.021149 197.202881,309.063721 198.599274,305.859497 
z"/>
<path fill="#223A49" opacity="1.000000" stroke="none" 
	d="
M389.968536,333.370728 
	C393.257782,333.717896 395.056030,335.704224 395.000000,339.611725 
	C393.355927,337.895966 391.708832,335.796967 389.968536,333.370728 
z"/>
<path fill="#223A49" opacity="1.000000" stroke="none" 
	d="
M432.012787,341.635315 
	C430.478760,340.086334 428.852325,338.211670 427.336700,335.964417 
	C428.938446,337.497772 430.429443,339.403717 432.012787,341.635315 
z"/>
<path fill="#223A49" opacity="1.000000" stroke="none" 
	d="
M420.967529,326.649841 
	C419.721161,325.469757 418.389038,323.968597 417.082092,322.081177 
	C418.365417,323.239532 419.623596,324.784149 420.967529,326.649841 
z"/>
<path fill="#223A49" opacity="1.000000" stroke="none" 
	d="
M424.348572,331.225769 
	C423.320740,330.253143 422.174042,328.984924 421.030060,327.330109 
	C422.098450,328.272400 423.164093,329.601257 424.348572,331.225769 
z"/>
<path fill="#223A49" opacity="1.000000" stroke="none" 
	d="
M437.976807,349.662018 
	C437.040344,348.875671 436.033417,347.775146 435.031433,346.303101 
	C435.993011,347.070312 436.949677,348.209076 437.976807,349.662018 
z"/>
<path fill="#223A49" opacity="1.000000" stroke="none" 
	d="
M259.317749,334.649506 
	C258.986694,334.197815 258.991180,333.855957 258.999054,333.257629 
	C260.550385,333.311981 262.098297,333.622711 263.750336,334.325867 
	C262.454041,334.731964 261.053680,334.745636 259.317749,334.649506 
z"/>
<path fill="#223A49" opacity="1.000000" stroke="none" 
	d="
M386.206238,328.309998 
	C387.085541,329.074493 388.039124,330.139984 389.009613,331.556488 
	C388.111176,330.808655 387.195862,329.709839 386.206238,328.309998 
z"/>
<path fill="#223A49" opacity="1.000000" stroke="none" 
	d="
M333.256592,240.833527 
	C332.831665,241.004761 332.649414,241.007202 332.193848,241.015625 
	C332.422516,240.286545 332.924530,239.551453 333.716248,238.911194 
	C333.837067,239.558929 333.668182,240.111816 333.256592,240.833527 
z"/>
<path fill="#1B3645" opacity="1.000000" stroke="none" 
	d="
M219.354980,334.898224 
	C219.751663,334.304443 220.525146,333.655090 221.648895,333.260773 
	C221.993835,333.859924 221.988495,334.204071 221.983185,334.548187 
	C221.232727,334.646332 220.482254,334.744476 219.354980,334.898224 
z"/>
<path fill="#223A49" opacity="1.000000" stroke="none" 
	d="
M396.787140,342.538940 
	C397.445068,342.979523 398.195618,343.725403 398.927246,344.862701 
	C398.232117,344.450836 397.555939,343.647522 396.787140,342.538940 
z"/>
<path fill="#223A49" opacity="1.000000" stroke="none" 
	d="
M435.005249,345.669647 
	C434.379028,345.245636 433.694946,344.520905 432.992432,343.446289 
	C433.631836,343.853912 434.289642,344.611420 435.005249,345.669647 
z"/>
<path fill="#223A49" opacity="1.000000" stroke="none" 
	d="
M222.317520,334.656494 
	C221.988495,334.204071 221.993835,333.859924 222.000381,333.257568 
	C222.445419,332.999023 222.889221,332.998657 223.665878,333.000427 
	C224.003403,333.342957 224.008072,333.683350 224.015457,334.278992 
	C223.562729,334.611115 223.107300,334.687958 222.317520,334.656494 
z"/>
<path fill="#223A49" opacity="1.000000" stroke="none" 
	d="
M384.020294,325.343719 
	C384.579163,325.629181 385.223694,326.231720 385.854919,327.213867 
	C385.263062,326.949249 384.684540,326.305054 384.020294,325.343719 
z"/>
<path fill="#223A49" opacity="1.000000" stroke="none" 
	d="
M362.919678,316.623993 
	C362.748413,316.011475 362.665741,315.044800 362.861511,314.082214 
	C363.096069,314.814148 363.052185,315.541962 362.919678,316.623993 
z"/>
<path fill="#223A49" opacity="1.000000" stroke="none" 
	d="
M381.039734,321.338043 
	C381.595886,321.629974 382.233551,322.240570 382.855988,323.230957 
	C382.267578,322.959381 381.694427,322.308044 381.039734,321.338043 
z"/>
<path fill="#223A49" opacity="1.000000" stroke="none" 
	d="
M362.903900,323.613342 
	C362.674194,323.124329 362.532440,322.272614 362.604675,321.226929 
	C362.876434,321.772156 362.934174,322.511414 362.903900,323.613342 
z"/>
<path fill="#223A49" opacity="1.000000" stroke="none" 
	d="
M427.401794,335.360260 
	C427.031799,335.262238 426.567230,334.877014 426.087036,334.147400 
	C426.483337,334.226379 426.895294,334.649689 427.401794,335.360260 
z"/>
<path fill="#223A49" opacity="1.000000" stroke="none" 
	d="
M399.668091,346.420807 
	C400.018402,346.542328 400.462433,346.956329 400.944855,347.698914 
	C400.576111,347.589447 400.168915,347.151337 399.668091,346.420807 
z"/>
<path fill="#223A49" opacity="1.000000" stroke="none" 
	d="
M425.333588,332.595337 
	C425.087433,332.649750 424.739319,332.424530 424.374420,331.872711 
	C424.648956,331.802643 424.940308,332.059174 425.333588,332.595337 
z"/>
<path fill="#223A49" opacity="1.000000" stroke="none" 
	d="
M395.862366,341.344543 
	C396.097839,341.290192 396.399323,341.517334 396.754089,342.033112 
	C396.514404,342.089844 396.221375,341.857941 395.862366,341.344543 
z"/>
<path fill="#F8FBFB" opacity="1.000000" stroke="none" 
	d="
M362.985870,288.067261 
	C362.985870,280.616241 362.985870,273.165253 362.985870,265.318848 
	C372.048981,265.318848 380.665588,264.965179 389.238037,265.428589 
	C396.338013,265.812408 400.547516,270.146088 400.952881,276.126282 
	C401.369720,282.275574 398.081207,286.115875 389.876617,288.183807 
	C380.366150,288.198730 371.676025,288.132996 362.985870,288.067261 
z"/>
<path fill="#1B3645" opacity="1.000000" stroke="none" 
	d="
M363.097473,288.454407 
	C371.676025,288.132996 380.366150,288.198730 389.519897,288.327576 
	C389.104065,288.925903 388.231934,289.911041 387.344025,289.925507 
	C379.963715,290.045807 372.580139,290.016144 365.198669,289.932648 
	C364.531433,289.925079 363.872101,289.221771 363.097473,288.454407 
z"/>
<path fill="#F4F8F9" opacity="1.000000" stroke="none" 
	d="
M236.182983,309.483215 
	C233.777084,309.483704 231.843903,309.483704 229.137360,309.483704 
	C233.385162,298.579498 237.314163,288.493683 241.620514,277.439209 
	C245.952820,288.528870 249.911728,298.662811 254.138641,309.482697 
	C247.865707,309.482697 242.260696,309.482697 236.182983,309.483215 
z"/>
<path fill="#F4F8F9" opacity="1.000000" stroke="none" 
	d="
M523.107239,309.682007 
	C524.583740,305.155487 525.936035,300.583618 527.567871,296.113770 
	C529.676086,290.338684 532.007629,284.645142 534.848328,277.365356 
	C539.180542,288.687592 543.039001,298.771637 546.430054,309.198730 
	C538.344116,309.588562 530.725708,309.635284 523.107239,309.682007 
z"/>
<path fill="#1B3645" opacity="1.000000" stroke="none" 
	d="
M523.317505,310.047913 
	C530.725708,309.635284 538.344116,309.588562 546.422363,309.556000 
	C546.435303,310.002045 545.984924,310.813477 545.542419,310.809204 
	C538.203552,310.738037 530.865784,310.564514 523.317505,310.047913 
z"/>
<path fill="#EAF0F1" opacity="1.000000" stroke="none" 
	d="
M432.063080,419.023895 
	C432.135681,417.271667 432.208771,415.976746 432.308716,414.206329 
	C436.786926,414.206329 441.076538,413.958557 445.321228,414.288330 
	C448.456238,414.531891 450.538635,416.544281 450.501099,419.923492 
	C450.463470,423.310730 448.342621,425.211517 445.181183,425.424988 
	C441.067627,425.702789 436.921204,425.492950 432.063599,425.492950 
	C432.063599,423.303802 432.063599,421.392517 432.063080,419.023895 
z"/>
<path fill="#C9A84E" opacity="1.000000" stroke="none" 
	d="
M75.961319,289.613281 
	C76.514404,294.904877 71.884438,296.670471 69.826500,300.013336 
	C67.296234,304.123474 64.618767,308.143036 61.993431,312.566559 
	C58.790604,312.592468 55.599266,312.253510 50.806423,311.744476 
	C55.200077,305.881317 58.746262,301.122162 62.324245,296.387054 
	C63.859589,294.355164 65.733475,292.527100 66.971840,290.334381 
	C69.108047,286.551910 72.793800,285.974548 75.961319,289.613281 
z"/>
</svg>